<?xml version="1.0" encoding="UTF-8" standalone="no"?>
<!-- Created with Inkscape (http://www.inkscape.org/) -->

<svg
   width="512"
   height="512"
   viewBox="0 0 512 512"
   version="1.1"
   id="svg5"
   xml:space="preserve"
   inkscape:version="1.2.2 (b0a8486541, 2022-12-01)"
   sodipodi:docname="icon.svg"
   xmlns:inkscape="http://www.inkscape.org/namespaces/inkscape"
   xmlns:sodipodi="http://sodipodi.sourceforge.net/DTD/sodipodi-0.dtd"
   xmlns="http://www.w3.org/2000/svg"
   xmlns:svg="http://www.w3.org/2000/svg"><sodipodi:namedview
     id="namedview7"
     pagecolor="#ffffff"
     bordercolor="#666666"
     borderopacity="1.0"
     inkscape:showpageshadow="2"
     inkscape:pageopacity="0.0"
     inkscape:pagecheckerboard="0"
     inkscape:deskcolor="#d1d1d1"
     inkscape:document-units="px"
     showgrid="false"
     inkscape:zoom="0.54573751"
     inkscape:cx="62.301014"
     inkscape:cy="337.15843"
     inkscape:window-width="1920"
     inkscape:window-height="1016"
     inkscape:window-x="0"
     inkscape:window-y="0"
     inkscape:window-maximized="1"
     inkscape:current-layer="layer1" /><defs
     id="defs2" /><g
     inkscape:label="Camada 1"
     inkscape:groupmode="layer"
     id="layer1"><rect
       style="fill:#008000;stroke-width:1.78872;stroke-linecap:round;stroke-linejoin:round;stroke-dasharray:13.8179, 13.8179"
       id="rect679"
       width="418.62354"
       height="405.4996"
       x="54.688232"
       y="67.250198"
       ry="37.131836" /><path
       id="rect234"
       style="fill:#800080;stroke-width:1.57256;stroke-linecap:round;stroke-linejoin:round;stroke-dasharray:12.1481, 12.1481"
       d="M 46.058594 0 C 20.542634 -4.7369468e-15 0 20.542634 0 46.058594 L 0 465.94141 C -4.7369468e-15 491.45737 20.542634 512 46.058594 512 L 465.94141 512 C 491.45737 512 512 491.45737 512 465.94141 L 512 46.058594 C 512 20.542634 491.45737 0 465.94141 0 L 46.058594 0 z M 72.65625 32.433594 L 439.34375 32.433594 C 461.62707 32.433594 479.56641 50.372929 479.56641 72.65625 L 479.56641 439.34375 C 479.56641 461.62707 461.62707 479.56641 439.34375 479.56641 L 72.65625 479.56641 C 50.372929 479.56641 32.433594 461.62707 32.433594 439.34375 L 32.433594 72.65625 C 32.433594 50.372929 50.372929 32.433594 72.65625 32.433594 z " /><path
       style="fill:#ffffff"
       d="m 227.00497,424.51832 v -31.5 h 31.5 31.5 v 31.5 31.5 h -31.5 -31.5 z m 54,0 v -22.5 h -22.5 -22.5 v 22.5 22.5 h 22.5 22.5 z m -36,0 v -13.5 h 13.5 13.5 v 13.5 13.5 h -13.5 -13.5 z m 54,18 v -13.5 h 9 9 v -4.5 -4.5 h -9 -9 v -22.5 -22.5 h 4.5 4.5 v -4.5 -4.5 h -22.5 -22.5 v 9 9 h -4.5 -4.5 v -9 -9 h -4.5 -4.5 v 4.5 4.5 h -4.5 -4.5 v 4.5 4.5 h -4.5 -4.5 v -4.5 -4.5 h 4.5 4.5 v -4.5 -4.5 h -4.5 -4.5 v -4.5 -4.5 h 4.5 4.5 v 4.5 4.5 h 4.5 4.5 v -4.5 -4.5 h 22.5 22.5 v -4.5 -4.5 h -13.5 -13.5 v -4.5 -4.5 h -4.5 -4.5 v 4.5 4.5 h -9 -9 v -4.5 -4.5 h -4.5 -4.5 v -8.99999 -9 h 9 9 v 4.5 4.5 h -4.5 -4.5 v 4.5 4.49999 h 9 9 v -13.49999 -13.5 h -13.5 -13.5 v -4.50001 -4.5 h 13.5 13.5 v 4.5 4.50001 h 4.5 4.5 v -4.50001 -4.5 h 18 18 v -9 -9 h 4.5 4.5 v 13.5 13.50001 h 4.5 4.5 v 4.5 4.5 h 4.5 4.5 v -4.5 -4.5 h 4.5 4.5 v -4.50001 -4.5 h -4.5 -4.5 v -4.5 -4.5 h -4.5 -4.5 v -9 -9 h -4.5 -4.5 v -9 -9 h -4.5 -4.5 v -4.5 -4.5 h 4.5 4.5 v -4.5 -4.5 h 4.5 4.5 v -4.5 -4.5 h 4.5 4.5 v 4.5 4.5 h -4.5 -4.5 v 4.5 4.5 h -4.5 -4.5 v 4.5 4.5 h 4.5 4.5 v 9 9 h 9 9 v -9 -9 h -4.5 -4.5 v -4.5 -4.5 h 4.5 4.5 v 4.5 4.5 h 4.5 4.5 v 18 18 h 4.5 4.5 v -4.5 -4.5 h 4.5 4.5 v -4.5 -4.5 h 9 9 v 13.5 13.5 h 9 9 v 4.5 4.50001 h 4.5 4.5 v 4.5 4.5 h -4.5 -4.5 v 4.5 4.5 h -4.5 -4.5 v 4.5 4.49999 h 4.5 4.5 v 4.5 4.5 h -9 -9 v 4.5 4.5 h -4.5 -4.5 v -4.5 -4.5 h -9 -9 v -4.5 -4.5 h -9 -9 v 9 9 h -13.5 -13.5 v 4.5 4.5 h 4.5 4.5 v 4.5 4.5 h -4.5 -4.5 v 4.5 4.5 h 4.5 4.5 v 4.5 4.5 h 4.5 4.5 v -4.5 -4.5 h 4.5 4.5 v -4.5 -4.5 h -4.5 -4.5 v -4.5 -4.5 h 4.5 4.5 v 4.5 4.5 h 4.5 4.5 v 4.5 4.5 h 4.5 4.5 v 4.5 4.5 h 4.5 4.5 v -13.5 -13.5 h 4.5 4.5 v 4.5 4.5 h 4.5 4.5 v -4.5 -4.5 h 4.5 4.5 v -4.5 -4.5 h 13.5 13.5 v 13.5 13.5 h 4.5 4.5 v -4.5 -4.5 h 13.5 13.5 v 13.5 13.5 h -4.5 -4.5 v 4.5 4.5 h 4.5 4.5 v 4.5 4.5 h -13.5 -13.5 v 4.5 4.5 h -4.5 -4.5 v 4.5 4.5 h -4.5 -4.5 v 4.5 4.5 h -4.5 -4.5 v 4.5 4.5 h -4.5 -4.5 v -4.5 -4.5 h 4.5 4.5 v -13.5 -13.5 h -4.5 -4.5 v 9 9 h -4.5 -4.5 v 9 9 h -9 -9 v -9 -9 h 9 9 v -9 -9 h -4.5 -4.5 v -9 -9 h -4.5 -4.5 v 13.5 13.5 h -4.5 -4.5 v 4.5 4.5 h -4.5 -4.5 v -4.5 -4.5 h 4.5 4.5 v -9 -9 h -9 -9 v 9 9 h -4.5 -4.5 v 4.5 4.5 h 4.5 4.5 v 4.5 4.5 h 4.5 4.5 v 4.5 4.5 h -4.5 -4.5 v -4.5 -4.5 h -4.5 -4.5 v 4.5 4.5 h -4.5 -4.5 v -9 -9 h -4.5 -4.5 v 9 9 h -4.5 -4.5 z m 117,-18 v -4.5 h 4.5 4.5 v -4.5 -4.5 h 4.5 4.5 v -9 -9 h 4.5 4.5 v -4.5 -4.5 h -9 -9 v 9 9 h -4.5 -4.5 v 9 9 h -4.5 -4.5 v 4.5 4.5 h 4.5 4.5 z m -90,-9 v -4.5 h 4.5 4.5 v -4.5 -4.5 h -9 -9 v -4.5 -4.5 h -4.5 -4.5 v 4.5 4.5 h 4.5 4.5 v 9 9 h 4.5 4.5 z m 81,-18 v -13.5 h -13.5 -13.5 v 13.5 13.5 h 13.5 13.5 z m -18,0 v -4.5 h 4.5 4.5 v 4.5 4.5 h -4.5 -4.5 z m -36,0 v -4.5 h -4.5 -4.5 v 4.5 4.5 h 4.5 4.5 z m 45,-27 v -4.5 h -4.5 -4.5 v 4.5 4.5 h 4.5 4.5 z m -90,-18 v -4.5 h 4.5 4.5 v -4.5 -4.5 h -4.5 -4.5 v 4.5 4.5 h -4.5 -4.5 v -9 -8.99999 h 9 9 v -4.5 -4.5 h -13.5 -13.5 v -4.5 -4.5 h -4.5 -4.5 v 4.5 4.5 h 4.5 4.5 v 4.5 4.5 h -9 -9 v -9 -9 h -4.5 -4.5 v 13.5 13.49999 h 13.5 13.5 v 4.5 4.5 h 4.5 4.5 v 4.5 4.5 h 4.5 4.5 z m 72,-13.5 v -8.99999 h 4.5 4.5 v -9 -9 h -4.5 -4.5 v -4.50001 -4.5 h -13.5 -13.5 v 4.5 4.50001 h 13.5 13.5 v 4.5 4.5 h -9 -9 v 4.5 4.5 h -4.5 -4.5 v 4.5 4.49999 h 4.5 4.5 v -4.49999 -4.5 h 4.5 4.5 v 8.99999 9 h 4.5 4.5 z m -45,-4.49999 v -4.5 h -4.5 -4.5 v 4.5 4.49999 h 4.5 4.5 z m 9,-36.00001 v -4.5 h -4.5 -4.5 v -4.5 -4.5 h -4.5 -4.5 v 4.5 4.5 h 4.5 4.5 v 4.5 4.5 h 4.5 4.5 z m 27,-9 v -4.5 h -4.5 -4.5 v 4.5 4.5 h 4.5 4.5 z m 54,162 v -4.5 h 4.5 4.5 v -4.5 -4.5 h 4.5 4.5 v -4.5 -4.5 h 4.5 4.5 v 4.5 4.5 h -4.5 -4.5 v 4.5 4.5 h 4.5 4.5 v 4.5 4.5 h -13.5 -13.5 z m -153,-72 v -4.5 h 9 9 v 4.5 4.5 h -9 -9 z m 72,-18 v -4.5 h 4.5 4.5 v 4.5 4.5 h -4.5 -4.5 z m 90,-9 v -13.5 h 4.5 4.5 v -4.49999 -4.5 h -4.5 -4.5 v -9 -9 h -4.5 -4.5 v 4.5 4.5 h -4.5 -4.5 v -4.5 -4.5 h 4.5 4.5 v -4.50001 -4.5 h 4.5 4.5 v 4.5 4.50001 h 4.5 4.5 v 4.5 4.5 h 4.5 4.5 v 9 8.99999 h -4.5 -4.5 v 4.5 4.5 h 4.5 4.5 v 9 9 h -9 -9 z m -18,-13.5 v -8.99999 h 4.5 4.5 v 8.99999 9 h -4.5 -4.5 z m -189,-76.5 v -31.5 h 31.5 31.5 v 31.5 31.5 h -31.5 -31.5 z m 54,0 v -22.5 h -22.5 -22.5 v 22.5 22.5 h 22.5 22.5 z m -36,0 v -13.5 h 13.5 13.5 v 13.5 13.5 h -13.5 -13.5 z m 144,0 v -31.5 h 31.5 31.5 v 31.5 31.5 h -31.5 -31.5 z m 54,0 v -22.5 h -22.5 -22.5 v 22.5 22.5 h 22.5 22.5 z m -36,0 v -13.5 h 13.5 13.5 v 13.5 13.5 h -13.5 -13.5 z m -54,0 v -4.5 h 4.5 4.5 v 4.5 4.5 h -4.5 -4.5 z m -9,-22.5 v -9 h 4.5 4.5 v 9 9 h -4.5 -4.5 z m 18,4.5 v -4.5 h 9 9 v 4.5 4.5 h -9 -9 z"
       id="path452" /><g
       aria-label="A"
       id="text674"
       style="font-size:205.094px;line-height:1.25;letter-spacing:0px;fill:#ffffff;stroke-width:12.8184"
       transform="translate(-38,-24)"><path
         d="m 165.53293,182.62352 15.38205,44.91559 h 21.32977 L 149.74069,78.025587 H 125.12941 L 71.804971,227.53911 h 20.304306 l 15.792233,-44.91559 z m -5.33245,-15.99733 h -47.5818 l 24.61128,-68.091204 z"
         id="path676"
         style="fill:#ffffff" /></g></g></svg>
