<?xml version="1.0" encoding="UTF-8" standalone="no"?>
<!-- Created with Inkscape (http://www.inkscape.org/) -->

<svg
   width="512"
   height="512"
   viewBox="0 0 512 512"
   version="1.1"
   id="svg5"
   xml:space="preserve"
   inkscape:version="1.2.2 (b0a8486541, 2022-12-01)"
   sodipodi:docname="iconRound.svg"
   xmlns:inkscape="http://www.inkscape.org/namespaces/inkscape"
   xmlns:sodipodi="http://sodipodi.sourceforge.net/DTD/sodipodi-0.dtd"
   xmlns="http://www.w3.org/2000/svg"
   xmlns:svg="http://www.w3.org/2000/svg"><sodipodi:namedview
     id="namedview7"
     pagecolor="#ffffff"
     bordercolor="#666666"
     borderopacity="1.0"
     inkscape:showpageshadow="2"
     inkscape:pageopacity="0.0"
     inkscape:pagecheckerboard="0"
     inkscape:deskcolor="#d1d1d1"
     inkscape:document-units="px"
     showgrid="false"
     inkscape:zoom="1.1374151"
     inkscape:cx="236.50118"
     inkscape:cy="322.66146"
     inkscape:window-width="1920"
     inkscape:window-height="1016"
     inkscape:window-x="0"
     inkscape:window-y="0"
     inkscape:window-maximized="1"
     inkscape:current-layer="layer1" /><defs
     id="defs2" /><g
     inkscape:label="Camada 1"
     inkscape:groupmode="layer"
     id="layer1"><path
       id="rect1419"
       style="fill:#800080;stroke-width:1.82921;stroke-linecap:round;stroke-linejoin:round;stroke-dasharray:14.1307, 14.1307"
       d="M 183.59961 0 C 81.885094 -3.7895575e-14 0 81.885094 0 183.59961 L 0 328.40039 C -3.7895575e-14 430.11491 81.885094 512 183.59961 512 L 328.40039 512 C 430.11491 512 512 430.11491 512 328.40039 L 512 183.59961 C 512 81.885094 430.11491 0 328.40039 0 L 183.59961 0 z M 192.2793 30.689453 L 319.7207 30.689453 C 409.24174 30.689453 481.31055 102.75826 481.31055 192.2793 L 481.31055 319.7207 C 481.31055 409.24174 409.24174 481.31055 319.7207 481.31055 L 192.2793 481.31055 C 102.75826 481.31055 30.689453 409.24174 30.689453 319.7207 L 30.689453 192.2793 C 30.689453 102.75826 102.75826 30.689453 192.2793 30.689453 z " /><rect
       style="fill:#008000;stroke-width:1.54945;stroke-linecap:round;stroke-linejoin:round;stroke-dasharray:11.9696, 11.9696"
       id="rect679"
       width="362.62671"
       height="351.25827"
       x="74.686646"
       y="80.370865"
       ry="108.41032" /><path
       style="fill:#ffffff;stroke-width:0.866236"
       d="m 230.88347,401.97661 v -27.28643 h 27.28643 27.28642 v 27.28643 27.28643 H 258.1699 230.88347 Z m 46.77673,0 V 382.4863 h -19.4903 -19.49031 v 19.49031 19.4903 h 19.49031 19.4903 z m -31.18449,0 v -11.69419 h 11.69419 11.69418 v 11.69419 11.69418 H 258.1699 246.47571 Z m 46.77674,15.59224 v -11.69418 h 7.79612 7.79612 v -3.89806 -3.89806 h -7.79612 -7.79612 v -19.49031 -19.49031 h 3.89806 3.89806 v -3.89806 -3.89806 h -19.49031 -19.4903 v 7.79612 7.79613 h -3.89806 -3.89806 v -7.79613 -7.79612 h -3.89807 -3.89806 v 3.89806 3.89806 h -3.89806 -3.89806 v 3.89807 3.89806 h -3.89806 -3.89806 v -3.89806 -3.89807 h 3.89806 3.89806 v -3.89806 -3.89806 h -3.89806 -3.89806 v -3.89806 -3.89806 h 3.89806 3.89806 v 3.89806 3.89806 h 3.89806 3.89806 v -3.89806 -3.89806 h 19.49031 19.4903 v -3.89806 -3.89806 h -11.69418 -11.69418 v -3.89806 -3.89807 h -3.89806 -3.89806 v 3.89807 3.89806 h -7.79613 -7.79612 v -3.89806 -3.89807 h -3.89806 -3.89806 v -7.79611 -7.79612 h 7.79612 7.79612 v 3.89806 3.89806 h -3.89806 -3.89806 v 3.89806 3.89805 h 7.79612 7.79613 v -11.69417 -11.69418 h -11.69419 -11.69418 v -3.89807 -3.89807 h 11.69418 11.69419 v 3.89807 3.89807 h 3.89806 3.89806 v -3.89807 -3.89807 h 15.59224 15.59225 v -7.79612 -7.79612 h 3.89806 3.89806 v 11.69418 11.6942 h 3.89806 3.89806 v 3.89806 3.89806 h 3.89806 3.89806 v -3.89806 -3.89806 h 3.89807 3.89806 v -3.89807 -3.89807 h -3.89806 -3.89807 v -3.89806 -3.89806 h -3.89806 -3.89806 v -7.79612 -7.79612 h -3.89806 -3.89806 v -7.79612 -7.79613 h -3.89806 -3.89806 v -3.89806 -3.89806 h 3.89806 3.89806 v -3.89806 -3.89806 h 3.89806 3.89806 v -3.89806 -3.89806 h 3.89806 3.89806 v 3.89806 3.89806 h -3.89806 -3.89806 v 3.89806 3.89806 h -3.89806 -3.89806 v 3.89806 3.89806 h 3.89806 3.89806 v 7.79613 7.79612 h 7.79612 7.79613 v -7.79612 -7.79613 h -3.89806 -3.89807 v -3.89806 -3.89806 h 3.89807 3.89806 v 3.89806 3.89806 h 3.89806 3.89806 v 15.59225 15.59224 h 3.89806 3.89806 v -3.89806 -3.89806 h 3.89806 3.89806 v -3.89806 -3.89806 h 7.79613 7.79612 v 11.69418 11.69418 h 7.79612 7.79612 v 3.89807 3.89807 h 3.89807 3.89806 v 3.89806 3.89806 h -3.89806 -3.89807 v 3.89806 3.89806 h -3.89806 -3.89806 v 3.89806 3.89805 h 3.89806 3.89806 v 3.89807 3.89806 h -7.79612 -7.79612 v 3.89806 3.89806 h -3.89806 -3.89806 v -3.89806 -3.89806 h -7.79613 -7.79612 v -3.89806 -3.89807 h -7.79612 -7.79612 v 7.79613 7.79612 h -11.69419 -11.69418 v 3.89806 3.89806 h 3.89806 3.89806 v 3.89806 3.89806 h -3.89806 -3.89806 v 3.89807 3.89806 h 3.89806 3.89806 v 3.89806 3.89806 h 3.89806 3.89806 v -3.89806 -3.89806 h 3.89807 3.89806 v -3.89806 -3.89807 h -3.89806 -3.89807 v -3.89806 -3.89806 h 3.89807 3.89806 v 3.89806 3.89806 h 3.89806 3.89806 v 3.89807 3.89806 h 3.89806 3.89806 v 3.89806 3.89806 h 3.89806 3.89806 V 362.996 351.30181 h 3.89807 3.89806 v 3.89806 3.89806 h 3.89806 3.89806 v -3.89806 -3.89806 h 3.89806 3.89806 v -3.89806 -3.89806 h 11.69419 11.69418 v 11.69418 11.69419 h 3.89806 3.89806 v -3.89806 -3.89807 h 11.69419 11.69418 v 11.69419 11.69418 h -3.89806 -3.89806 v 3.89806 3.89806 h 3.89806 3.89806 v 3.89807 3.89806 h -11.69418 -11.69419 v 3.89806 3.89806 h -3.89806 -3.89806 v 3.89806 3.89806 h -3.89806 -3.89806 v 3.89806 3.89806 h -3.89806 -3.89807 v 3.89807 3.89806 h -3.89806 -3.89806 v -3.89806 -3.89807 h 3.89806 3.89806 v -11.69418 -11.69418 h -3.89806 -3.89806 v 7.79612 7.79612 h -3.89806 -3.89806 v 7.79612 7.79613 h -7.79612 -7.79613 v -7.79613 -7.79612 h 7.79613 7.79612 v -7.79612 -7.79612 h -3.89806 -3.89806 v -7.79613 -7.79612 h -3.89806 -3.89807 v 11.69419 11.69418 h -3.89806 -3.89806 v 3.89806 3.89806 h -3.89806 -3.89806 v -3.89806 -3.89806 h 3.89806 3.89806 v -7.79612 -7.79613 h -7.79612 -7.79612 v 7.79613 7.79612 h -3.89806 -3.89807 v 3.89806 3.89806 h 3.89807 3.89806 v 3.89806 3.89806 h 3.89806 3.89806 v 3.89807 3.89806 h -3.89806 -3.89806 v -3.89806 -3.89807 h -3.89806 -3.89807 v 3.89807 3.89806 h -3.89806 -3.89806 v -7.79613 -7.79612 h -3.89806 -3.89806 v 7.79612 7.79613 h -3.89806 -3.89806 z m 101.34959,-15.59224 v -3.89806 h 3.89806 3.89806 v -3.89806 -3.89807 h 3.89806 3.89806 v -7.79612 -7.79612 h 3.89807 3.89806 v -3.89806 -3.89806 h -7.79613 -7.79612 v 7.79612 7.79612 h -3.89806 -3.89806 v 7.79612 7.79613 h -3.89806 -3.89806 v 3.89806 3.89806 h 3.89806 3.89806 z m -77.96123,-7.79612 v -3.89807 h 3.89807 3.89806 v -3.89806 -3.89806 h -7.79613 -7.79612 v -3.89806 -3.89806 h -3.89806 -3.89806 v 3.89806 3.89806 h 3.89806 3.89806 v 7.79612 7.79613 h 3.89806 3.89806 z m 70.16511,-15.59225 v -11.69418 h -11.69419 -11.69418 v 11.69418 11.69418 h 11.69418 11.69419 z m -15.59225,0 v -3.89806 h 3.89806 3.89806 v 3.89806 3.89806 h -3.89806 -3.89806 z m -31.18449,0 v -3.89806 h -3.89806 -3.89806 v 3.89806 3.89806 h 3.89806 3.89806 z m 38.98061,-23.38837 v -3.89806 h -3.89806 -3.89806 v 3.89806 3.89806 h 3.89806 3.89806 z m -77.96122,-15.59224 v -3.89806 h 3.89806 3.89806 v -3.89806 -3.89807 h -3.89806 -3.89806 v 3.89807 3.89806 h -3.89806 -3.89806 v -7.79613 -7.79611 h 7.79612 7.79612 v -3.89806 -3.89806 h -11.69418 -11.69419 v -3.89806 -3.89806 h -3.89806 -3.89806 v 3.89806 3.89806 h 3.89806 3.89806 v 3.89806 3.89806 h -7.79612 -7.79612 v -7.79612 -7.79612 h -3.89806 -3.89806 v 11.69418 11.69417 h 11.69418 11.69418 v 3.89807 3.89806 h 3.89807 3.89806 v 3.89806 3.89806 h 3.89806 3.89806 z m 62.36898,-11.69419 v -7.79611 h 3.89806 3.89806 v -7.79612 -7.79612 h -3.89806 -3.89806 v -3.89807 -3.89807 h -11.69418 -11.69419 v 3.89807 3.89807 h 11.69419 11.69418 v 3.89806 3.89806 h -7.79612 -7.79613 v 3.89806 3.89806 h -3.89806 -3.89806 v 3.89806 3.89805 h 3.89806 3.89806 v -3.89805 -3.89806 h 3.89807 3.89806 v 7.79611 7.79613 h 3.89806 3.89806 z m -38.98061,-3.89805 v -3.89806 h -3.89806 -3.89807 v 3.89806 3.89805 h 3.89807 3.89806 z m 7.79612,-31.1845 v -3.89806 h -3.89806 -3.89806 v -3.89806 -3.89806 h -3.89806 -3.89807 v 3.89806 3.89806 h 3.89807 3.89806 v 3.89806 3.89806 h 3.89806 3.89806 z m 23.38837,-7.79612 v -3.89806 h -3.89806 -3.89807 v 3.89806 3.89806 h 3.89807 3.89806 z m 46.77673,140.33021 v -3.89807 h 3.89806 3.89806 v -3.89806 -3.89806 h 3.89807 3.89806 v -3.89806 -3.89806 h 3.89806 3.89806 v 3.89806 3.89806 h -3.89806 -3.89806 v 3.89806 3.89806 h 3.89806 3.89806 v 3.89807 3.89806 H 414.09235 402.39816 Z M 269.86408,362.996 v -3.89807 h 7.79612 7.79612 v 3.89807 3.89806 h -7.79612 -7.79612 z m 62.36898,-15.59225 v -3.89806 h 3.89806 3.89806 v 3.89806 3.89806 h -3.89806 -3.89806 z m 77.96122,-7.79612 v -11.69419 h 3.89807 3.89806 v -3.89805 -3.89806 h -3.89806 -3.89807 v -7.79612 -7.79612 h -3.89806 -3.89806 v 3.89806 3.89806 h -3.89806 -3.89806 v -3.89806 -3.89806 h 3.89806 3.89806 v -3.89807 -3.89807 h 3.89806 3.89806 v 3.89807 3.89807 h 3.89807 3.89806 v 3.89806 3.89806 h 3.89806 3.89806 v 7.79612 7.79611 h -3.89806 -3.89806 v 3.89807 3.89806 h 3.89806 3.89806 v 7.79612 7.79612 h -7.79612 -7.79613 z m -15.59224,-11.69419 v -7.79611 h 3.89806 3.89806 v 7.79611 7.79613 h -3.89806 -3.89806 z M 230.88347,261.6464 v -27.28642 h 27.28643 27.28642 v 27.28642 27.28643 H 258.1699 230.88347 Z m 46.77673,0 v -19.4903 h -19.4903 -19.49031 v 19.4903 19.49031 h 19.49031 19.4903 z m -31.18449,0 v -11.69418 h 11.69419 11.69418 v 11.69418 11.69419 H 258.1699 246.47571 Z m 124.73796,0 v -27.28642 h 27.28643 27.28643 v 27.28642 27.28643 H 398.5001 371.21367 Z m 46.77674,0 V 242.1561 H 398.5001 379.00979 v 19.4903 19.49031 h 19.49031 19.49031 z m -31.18449,0 v -11.69418 h 11.69418 11.69418 v 11.69418 11.69419 H 398.5001 386.80592 Z m -46.77674,0 v -3.89806 h 3.89806 3.89806 v 3.89806 3.89807 h -3.89806 -3.89806 z m -7.79612,-19.4903 v -7.79612 h 3.89806 3.89806 v 7.79612 7.79612 h -3.89806 -3.89806 z m 15.59224,3.89806 v -3.89806 h 7.79613 7.79612 v 3.89806 3.89806 h -7.79612 -7.79613 z"
       id="path452" /><g
       aria-label="A"
       id="text674"
       style="font-size:205.094px;line-height:1.25;letter-spacing:0px;fill:#ffffff;stroke-width:12.8184"
       transform="matrix(0.86623583,0,0,0.86623583,1.3266675,13.453969)"><path
         d="m 165.53293,182.62352 15.38205,44.91559 h 21.32977 L 149.74069,78.025587 H 125.12941 L 71.804971,227.53911 h 20.304306 l 15.792233,-44.91559 z m -5.33245,-15.99733 h -47.5818 l 24.61128,-68.091204 z"
         id="path676"
         style="fill:#ffffff" /></g></g></svg>
